<svg xmlns="http://www.w3.org/2000/svg" viewBox="160 333 118 133">
<style>path{fill:#36247D}</style>
<path d="M273.382812 337.730469 L273.382812 361.679688 L259.679688 361.679688 L259.679688 462.269531 L251.886719 462.269531 C251.652344 462.269531 251.449219 462.117188 251.367188 461.898438 L236.328125 415.550781 L234.496094 409.925781 L234.496094 361.679688 L219.226562 361.679688 C218.992188 361.679688 218.773438 361.53125 218.707031 361.300781 L211.28125 338.441406 C211.171875 338.085938 211.433594 337.730469 211.800781 337.730469 Z"/>
<path d="M236.363281 462.269531 L208.9375 462.269531 C208.707031 462.269531 208.503906 462.125 208.425781 461.910156 L164.632812 338.453125 C164.507812 338.101562 164.769531 337.730469 165.144531 337.730469 L196.269531 337.730469 C196.507812 337.882812 196.714844 338.105469 196.789062 338.105469 L204.441406 361.679688 L221.9375 415.554688 L236.878906 461.558594 C236.992188 461.910156 236.730469 462.269531 236.363281 462.269531 Z"/>
</svg>
